<svg xmlns="http://www.w3.org/2000/svg" xmlns:xlink="http://www.w3.org/1999/xlink" xml:space="preserve" version="1.1" style="shape-rendering:geometricPrecision;text-rendering:geometricPrecision;image-rendering:optimizeQuality;" viewBox="0 0 394 507.5" x="0px" y="0px" fill-rule="evenodd" clip-rule="evenodd"><defs><style type="text/css">
   
    .fil0 {fill:black;fill-rule:nonzero}
   
  </style></defs><g><path class="fil0" d="M100 329c-5,5 -13,5 -18,0 -5,-5 -5,-13 0,-18l85 -84c5,-6 13,-5 18,0l33 33 76 -76c5,-4 13,-4 18,0 5,5 5,13 0,18l-85 85c-5,5 -13,5 -18,0l-33 -33 -76 75z"/><path class="fil0" d="M239 47c5,-5 13,-6 18,-2 6,5 6,13 2,18l-37 45 159 0c8,0 13,5 13,13l0 273c0,7 -6,12 -13,12l-368 0c-8,0 -13,-5 -13,-13l0 -273c0,-7 6,-12 13,-12l159 0 -69 -87c-5,-6 -4,-14 2,-18 5,-5 13,-4 17,2l75 93 42 -51zm130 86l-344 0 0 248 344 0 0 -248z"/></g><text x="0" y="421" fill="#000000" font-size="5px" font-weight="bold" font-family="'Helvetica Neue', Helvetica, Arial-Unicode, Arial, Sans-serif">Created by Aquene Ardeen</text><text x="0" y="426" fill="#000000" font-size="5px" font-weight="bold" font-family="'Helvetica Neue', Helvetica, Arial-Unicode, Arial, Sans-serif">from the Noun Project</text></svg>